<svg width="1920" height="973" viewBox="0 0 1920 973" fill="none" xmlns="http://www.w3.org/2000/svg">
<g clip-path="url(#clip0_2105_49)">
<rect width="1920" height="973" fill="white"/>
<rect width="295" height="88" transform="translate(1625 885)" fill="white"/>
<path d="M228.5 327.5V280V274H246V277H249.5V280.5H252.5V284H256V287.5H259.5V290H262.5V293.5H266V340H269V343.5H272.5V349.5H275.5V353H279V359.5H282.5V363H285.5V366H289V369.5H292.5V372.5H302V366H305.5V362.5H309V359H312.5V356H315V353H335V356.5H345V359.5H354.5V363H361V366H367.5V369.5H371V405.5H374.5V408.5H401V405.5H404.5V402.5H427L440 430.5H488.82V454L467 472.5V494.5L488.82 503.5V518L471.5 548L449.5 526H232.5V520.5V327.5H228.5Z" fill="#0A1E3F"/>
<path d="M449.5 526H232.5V520.5M449.5 526V518.5H445V514H440V511H437V507.5H433.5V504.5H430.5V501H427V498H424V494.5H420.5V484.5H417.5V481H414V478H296V487.5H292V494.5H289.5V500V503.5H286H282V507.5H279H262V511H246.5V514H240V518L236.268 517V520.5H232.5M449.5 526L471.5 548L488.82 518V503.5L467 494.5V472.5L488.82 454V430.5H440L427 402.5H404.5V405.5H401V408.5H374.5V405.5H371V369.5H367.5V366H361V363H354.5V359.5H345V356.5H335V353H315V356H312.5V359H309V362.5H305.5V366H302V372.5H292.5V369.5H289V366H285.5V363H282.5V359.5H279V353H275.5V349.5H272.5V343.5H269V340H266V293.5H262.5V290H259.5V287.5H256V284H252.5V280.5H249.5V277H246V274H228.5V280V327.5H232.5V520.5" stroke="#F5F5F5" stroke-width="2.2"/>
<path d="M791 672V666H796V652.196L799 653V642H803V630H805.5V623H819V662.5H822V701H828V704.5H832.5V708.5H838.5V711.5H842V716H898.5V724.5V741H894.5V745H891V768.5H946.5V823H940.5V836.5H910.5V843H881V836.5H873.5V833H868.5H865V825.5H861V833H848V836.5H835V840H828.5V846H786V813H789.5V810H792.5V806.5H796V803H801.5V791H786V785.5H779V780.5H772.5V741H779V738.392L782.33 737.5L783 735H786V731.5H788.5V727.5H792.5V724.5H796V718.5H799V675H795V672H791Z" fill="#0A1E3F" stroke="#F5F5F5" stroke-width="2.2"/>
<path d="M471.5 546L558.5 608M471.5 546L450.5 524H292H232V336L228.5 331V278.5M471.5 546L487.5 515V506L466 492.5V472.5L487.5 454V431.5L511.5 393H540L544.5 365.5L567 362.5M558.5 608L562 621L567 624.5V638L569.5 651L582.5 664.5L592.5 674L614.5 680.5V705H609V716.5H618V720H626M558.5 608L569.5 592.5L582.5 579L592.5 562.5M626 720V756.5L646 789.5L654.5 808L686.5 838L703.5 855.5L725.5 858V862H746V846.5H750H788M626 720L632 732L643 737L664.5 743L686.5 724H725.5L754.5 705L767 693L788 674M788 846.5L787 814H790.5V811.5H793.5V807.5H797.5V804.5H803V789.5H787.5V784.5H780V779.5H773V742.5H779.5V738.5H783.5V736H787V732.5H789.5V728.5H793.5V725.5H796.5V720H800.5V674H795H788M788 846.5H828.5V838.5H834V835.5H846.5V831.5H859.5V824.5H866V832.5H874.5V835.5H882V842H909.5V835.5H939.5V822.5L942 819.5M788 674L806 621M806 621L818.5 575.5V531.5V506M806 621L839 625M818.5 506H813.5H806L788 511.5L758.5 524L750 527.5L730.5 531.5H725.5V546L737.5 558.5L750 575.5L754.5 582.5L746 592.5L737.5 612.5L725.5 629L713 634L703.5 638H699.5V598L681.5 586.5L664.5 575.5L643 592.5L621 585L604 602.5L600 598L592.5 585L596 575.5L592.5 562.5M818.5 506L806 492.5L799.5 472.5V458L806 445.5L818.5 439.5V403L813.5 386.5L806 380H780.5L758.5 362.5H730.5L725.5 356L703.5 336M818.5 506L832.5 492.5V478.5L839 467.5H849M592.5 562.5L562 537.5L587.5 511.5V484L604 452.5L609 445.5H626L637.5 458L646 472.5H664.5L675.5 467.5L686.5 445.5L675.5 423L703.5 403V336M703.5 336V319.5L692 309L681.5 303H669.5M669.5 303L664.5 309L654.5 319.5L643 362.5L637.5 372.5L621 380L611 365.5L592.5 349.5L577.5 380L567 362.5M669.5 303V294L664.5 289L646 278.5V269.5L629.5 259.5L626 242.5M567 362.5L544.5 327.5V289L569.5 259.5M569.5 259.5L533.5 252H487.5M569.5 259.5H609L617 252L626 242.5M487.5 252L492 278.5L471.5 285L450.5 289L441.5 278.5L414 294V331L423 345V403L441.5 431.5M487.5 252L482 234.5L471.5 213L450.5 185.5L432 166.5V130.5L450.5 121.5V105.5H432V100H400L381.5 82.5L316.5 141.5H270.5L242.5 172.5H237M237 172.5V185.5H232V230H225L228.5 278.5M237 172.5V121.5V115L258 105.5H274.5L285 91.5V60.5H290.5V32.5L316.5 10.5V-1M228.5 278.5L229.5 275H244.5V278H248.5V281H251.5V285H254.5V288.5H258V291H261V294H265.5V340.5H268V345H271.5V351H274.5V354H277.5V360H281V364H284.5V368H287.5V370.5H291V374H303.5V368H306.5V364H309V360H312V357H315.5V352.5H334V357H344V360H354V364L360 365.5V368H366.5V370.5H370V406.5H373.5V409H402V406.5H406V403H410M477 -1V27.5H492L497.5 32.5L506 41.5L517.5 54V70.5V79L533.5 82.5V67H567L599.5 105.5H609H629.5L654.5 111L675.5 130.5V141.5H730.5M730.5 141.5V157L725.5 172.5V185.5L714.5 197.5L692 201.5H669.5L643 172.5H629.5V185.5L613.5 195V216.5L617 230L626 242.5M730.5 141.5L744 146.5L768 166.5L780.5 181L799.5 219H816L826.5 197.5L832.5 195M849 467.5L853.5 458H878L914.5 416H931L935.5 423M849 467.5L878 484L874.5 498L867 515L896 562.5L907 571.5M935.5 423L975.5 386.5V356L957.5 331V309L951.5 303V285L948.5 276V255.5M935.5 423L948.5 445.5L951.5 454L975.5 445.5L981 454V484M948.5 255.5L935.5 259.5V252H878L862 259.5H853.5V195M948.5 255.5H971.5L997.5 266L1030.5 276L1060 289L1073 276L1060 259.5V248L1073 242.5L1080 231.5H1088H1135.5L1177.5 259.5M853.5 195H832.5M853.5 195H867L874.5 172.5L892.5 176L914.5 163L935.5 151.5V82.5L943 67L951.5 49.5V42.75M832.5 195L818.5 185.5V75L839 60.5L862 67L878 75L896 70.5V49.5H907M907 49.5L901.5 41.5L887.5 27.5L896 -1M907 49.5L935.5 32.5L951.5 36V42.75M951.5 42.75L1001.5 41.5L1027 82.5L1045 60.5L1099.5 79L1104.5 60.5H1117M1117 60.5L1088 23V-1M1117 60.5V70.5L1126.5 82.5L1139.5 91.5H1163L1169.5 95L1163 100L1154.5 116.5V157L1177.5 176L1191.5 185.5L1209.5 181L1222.5 176H1231.5L1243 195M1243 195L1293.5 176L1362.5 105.5H1402.5V79L1390.5 60.5V14M1243 195V201.5H1222.5H1213V248L1206 255.5L1197 259.5H1177.5M1390.5 14L1409.5 -1M1390.5 14L1369.5 -1M1177.5 259.5L1183.5 285L1210 276L1256.5 269.5L1299 327.5V362.5L1264 416V445.5M981 484H966V511.5H971.5L962.5 582.5L951.5 586.5M981 484L990 492.5H1005V484V478.5H1009V463H1036.5L1060 478.5M951.5 586.5L931 575.5L927.5 571.5H907M951.5 586.5L984.5 612.5M907 571.5V592.5M984.5 612.5V621L997.5 634V674L990 685.5M984.5 612.5L1009 575.5L1016 579H1036.5L1073 524V506L1060 478.5M990 685.5L981 674L971.5 669L957.5 682.567L951.5 701L942.5 720L935.5 737L948.5 750.5L942.5 770.5M990 685.5L997.5 705H1016L1065.5 780V808M942.5 770.5V819H997.5V808H1045.5H1065.5M942.5 770.5L890 769.5V744H893.5V739.5H897L896 720L901.5 716M1065.5 808H1096.5V819H1108V808L1112 737L1136 712V705V649L1156 642V629L1141.5 625L1136 612.5V598L1214.5 527.5L1229.5 515V506L1234 498M907 592.5L923.5 607.5V662L902 685.5L907 693V712L901.5 716M907 592.5H862L853.5 607.5V621H845L839 625M839 625L818 624.5V663.5H820.5V702H826.5V705.5H831V709.5H837V712.5H840.5V716H901.5M1060 478.5L1096.5 458V439.5H1147L1166.5 472.5L1170.5 478.5H1197V472.5H1210L1234 498M1234 498H1243L1256.5 484V445.5H1264M1264 445.5H1276L1285.5 439.5L1310.5 416V403H1331L1341.5 416H1369.5L1385.5 386.5H1402.5L1443.5 431.5H1463L1504.5 476.5L1515.5 463L1525 467.5L1531 455L1542.5 456L1531 445.5H1542.5V423L1552.5 389L1575.5 379.5V362.5L1569 341.5V331L1587 320.5M1587 320.5L1575.5 309V276L1542.5 259.5L1531 269.5L1504.5 231.5L1542.5 185.5L1587 105.5L1552.5 54V32.5L1515.5 -1M1587 320.5L1603.5 308.5V285L1621 266V248L1633 232" stroke="black" stroke-opacity="0.15" stroke-width="2.2"/>
<path d="M819.973 765.867C821.379 765.867 822.539 766.043 823.453 766.395C824.375 766.738 825.062 767.266 825.516 767.977C825.969 768.688 826.195 769.594 826.195 770.695C826.195 771.602 826.031 772.359 825.703 772.969C825.375 773.57 824.945 774.059 824.414 774.434C823.883 774.809 823.316 775.098 822.715 775.301L827.414 783H825.094L820.898 775.852H817.336V783H815.344V765.867H819.973ZM819.855 767.59H817.336V774.164H820.055C821.453 774.164 822.48 773.879 823.137 773.309C823.801 772.738 824.133 771.898 824.133 770.789C824.133 769.625 823.781 768.801 823.078 768.316C822.383 767.832 821.309 767.59 819.855 767.59ZM831.329 770.156V783H829.383V770.156H831.329ZM830.379 765.352C830.7 765.352 830.973 765.457 831.2 765.668C831.434 765.871 831.551 766.191 831.551 766.629C831.551 767.059 831.434 767.379 831.2 767.59C830.973 767.801 830.7 767.906 830.379 767.906C830.043 767.906 829.762 767.801 829.536 767.59C829.317 767.379 829.208 767.059 829.208 766.629C829.208 766.191 829.317 765.871 829.536 765.668C829.762 765.457 830.043 765.352 830.379 765.352ZM837.798 783L832.923 770.156H835.009L837.833 777.926C838.028 778.457 838.228 779.043 838.431 779.684C838.634 780.324 838.774 780.84 838.853 781.23H838.935C839.028 780.84 839.185 780.324 839.403 779.684C839.622 779.035 839.821 778.449 840.001 777.926L842.825 770.156H844.911L840.024 783H837.798ZM851.439 769.922C852.533 769.922 853.47 770.164 854.251 770.648C855.033 771.133 855.63 771.812 856.044 772.688C856.458 773.555 856.665 774.57 856.665 775.734V776.941H847.794C847.818 778.449 848.193 779.598 848.919 780.387C849.646 781.176 850.669 781.57 851.99 781.57C852.802 781.57 853.521 781.496 854.146 781.348C854.771 781.199 855.419 780.98 856.091 780.691V782.402C855.443 782.691 854.798 782.902 854.158 783.035C853.525 783.168 852.775 783.234 851.908 783.234C850.673 783.234 849.595 782.984 848.673 782.484C847.759 781.977 847.048 781.234 846.54 780.258C846.033 779.281 845.779 778.086 845.779 776.672C845.779 775.289 846.009 774.094 846.47 773.086C846.939 772.07 847.595 771.289 848.439 770.742C849.29 770.195 850.29 769.922 851.439 769.922ZM851.415 771.516C850.376 771.516 849.548 771.855 848.931 772.535C848.314 773.215 847.947 774.164 847.83 775.383H854.626C854.619 774.617 854.497 773.945 854.263 773.367C854.037 772.781 853.689 772.328 853.22 772.008C852.751 771.68 852.15 771.516 851.415 771.516ZM865.326 769.922C865.584 769.922 865.853 769.938 866.135 769.969C866.416 769.992 866.666 770.027 866.885 770.074L866.639 771.879C866.428 771.824 866.193 771.781 865.935 771.75C865.678 771.719 865.435 771.703 865.209 771.703C864.693 771.703 864.205 771.809 863.744 772.02C863.291 772.223 862.893 772.52 862.549 772.91C862.205 773.293 861.935 773.758 861.74 774.305C861.545 774.844 861.447 775.445 861.447 776.109V783H859.49V770.156H861.107L861.318 772.523H861.4C861.666 772.047 861.986 771.613 862.361 771.223C862.736 770.824 863.17 770.508 863.662 770.273C864.162 770.039 864.717 769.922 865.326 769.922ZM877.139 779.484C877.139 780.305 876.932 780.996 876.518 781.559C876.112 782.113 875.526 782.531 874.76 782.812C874.002 783.094 873.096 783.234 872.041 783.234C871.143 783.234 870.366 783.164 869.709 783.023C869.053 782.883 868.479 782.684 867.987 782.426V780.633C868.51 780.891 869.135 781.125 869.862 781.336C870.588 781.547 871.33 781.652 872.088 781.652C873.198 781.652 874.002 781.473 874.502 781.113C875.002 780.754 875.252 780.266 875.252 779.648C875.252 779.297 875.151 778.988 874.948 778.723C874.752 778.449 874.42 778.188 873.952 777.938C873.483 777.68 872.834 777.398 872.006 777.094C871.186 776.781 870.475 776.473 869.873 776.168C869.28 775.855 868.819 775.477 868.491 775.031C868.17 774.586 868.01 774.008 868.01 773.297C868.01 772.211 868.448 771.379 869.323 770.801C870.205 770.215 871.362 769.922 872.791 769.922C873.565 769.922 874.287 770 874.959 770.156C875.639 770.305 876.272 770.508 876.858 770.766L876.202 772.324C875.67 772.098 875.104 771.906 874.502 771.75C873.901 771.594 873.287 771.516 872.662 771.516C871.764 771.516 871.073 771.664 870.588 771.961C870.112 772.258 869.873 772.664 869.873 773.18C869.873 773.578 869.983 773.906 870.202 774.164C870.428 774.422 870.787 774.664 871.28 774.891C871.772 775.117 872.42 775.383 873.225 775.688C874.03 775.984 874.725 776.293 875.311 776.613C875.897 776.926 876.346 777.309 876.659 777.762C876.979 778.207 877.139 778.781 877.139 779.484Z" fill="#00A89D"/>
<path d="M307.203 422.41C307.203 423.73 307.035 424.934 306.699 426.02C306.363 427.098 305.863 428.027 305.199 428.809C304.543 429.582 303.727 430.18 302.75 430.602C301.773 431.023 300.641 431.234 299.352 431.234C298.023 431.234 296.863 431.023 295.871 430.602C294.887 430.18 294.066 429.578 293.41 428.797C292.762 428.016 292.273 427.082 291.945 425.996C291.625 424.91 291.465 423.707 291.465 422.387C291.465 420.637 291.754 419.102 292.332 417.781C292.91 416.461 293.785 415.434 294.957 414.699C296.137 413.965 297.613 413.598 299.387 413.598C301.082 413.598 302.508 413.961 303.664 414.688C304.828 415.414 305.707 416.438 306.301 417.758C306.902 419.07 307.203 420.621 307.203 422.41ZM293.562 422.41C293.562 423.863 293.77 425.121 294.184 426.184C294.598 427.246 295.23 428.066 296.082 428.645C296.941 429.223 298.031 429.512 299.352 429.512C300.68 429.512 301.766 429.223 302.609 428.645C303.461 428.066 304.09 427.246 304.496 426.184C304.902 425.121 305.105 423.863 305.105 422.41C305.105 420.199 304.641 418.473 303.711 417.23C302.789 415.98 301.348 415.355 299.387 415.355C298.059 415.355 296.965 415.641 296.105 416.211C295.246 416.781 294.605 417.594 294.184 418.648C293.77 419.695 293.562 420.949 293.562 422.41ZM313.836 436.766C312.149 436.766 310.848 436.449 309.934 435.816C309.02 435.191 308.563 434.312 308.563 433.18C308.563 432.375 308.817 431.688 309.325 431.117C309.84 430.547 310.551 430.168 311.458 429.98C311.122 429.824 310.833 429.59 310.59 429.277C310.356 428.965 310.239 428.605 310.239 428.199C310.239 427.73 310.368 427.32 310.625 426.969C310.891 426.609 311.293 426.266 311.833 425.938C311.161 425.664 310.614 425.203 310.192 424.555C309.778 423.898 309.571 423.137 309.571 422.27C309.571 421.348 309.762 420.562 310.145 419.914C310.528 419.258 311.083 418.758 311.809 418.414C312.536 418.07 313.415 417.898 314.446 417.898C314.672 417.898 314.899 417.91 315.125 417.934C315.36 417.949 315.583 417.977 315.793 418.016C316.004 418.047 316.188 418.086 316.344 418.133H320.75V419.387L318.383 419.68C318.618 419.984 318.813 420.352 318.969 420.781C319.125 421.211 319.204 421.688 319.204 422.211C319.204 423.492 318.77 424.512 317.903 425.27C317.036 426.02 315.844 426.395 314.329 426.395C313.969 426.395 313.602 426.363 313.227 426.301C312.844 426.512 312.551 426.746 312.348 427.004C312.153 427.262 312.055 427.559 312.055 427.895C312.055 428.145 312.129 428.344 312.278 428.492C312.434 428.641 312.657 428.75 312.946 428.82C313.235 428.883 313.583 428.914 313.989 428.914H316.25C317.649 428.914 318.719 429.207 319.461 429.793C320.211 430.379 320.586 431.234 320.586 432.359C320.586 433.781 320.008 434.871 318.852 435.629C317.696 436.387 316.024 436.766 313.836 436.766ZM313.895 435.242C314.958 435.242 315.836 435.133 316.532 434.914C317.235 434.703 317.758 434.395 318.102 433.988C318.454 433.59 318.629 433.113 318.629 432.559C318.629 432.043 318.512 431.652 318.278 431.387C318.043 431.129 317.7 430.957 317.247 430.871C316.793 430.777 316.239 430.73 315.583 430.73H313.356C312.778 430.73 312.274 430.82 311.844 431C311.415 431.18 311.083 431.445 310.848 431.797C310.622 432.148 310.508 432.586 310.508 433.109C310.508 433.805 310.801 434.332 311.387 434.691C311.973 435.059 312.809 435.242 313.895 435.242ZM314.399 424.977C315.329 424.977 316.028 424.742 316.497 424.273C316.965 423.805 317.2 423.121 317.2 422.223C317.2 421.262 316.961 420.543 316.485 420.066C316.008 419.582 315.305 419.34 314.375 419.34C313.485 419.34 312.797 419.59 312.313 420.09C311.836 420.582 311.598 421.305 311.598 422.258C311.598 423.133 311.84 423.805 312.325 424.273C312.809 424.742 313.5 424.977 314.399 424.977ZM333.407 418.156V431H331.813L331.532 429.195H331.427C331.161 429.641 330.817 430.016 330.395 430.32C329.974 430.625 329.497 430.852 328.966 431C328.442 431.156 327.884 431.234 327.29 431.234C326.274 431.234 325.423 431.07 324.735 430.742C324.048 430.414 323.528 429.906 323.177 429.219C322.833 428.531 322.661 427.648 322.661 426.57V418.156H324.63V426.43C324.63 427.5 324.872 428.301 325.356 428.832C325.841 429.355 326.579 429.617 327.571 429.617C328.524 429.617 329.282 429.438 329.845 429.078C330.415 428.719 330.825 428.191 331.075 427.496C331.325 426.793 331.45 425.934 331.45 424.918V418.156H333.407ZM343.123 417.922C344.646 417.922 345.798 418.297 346.58 419.047C347.361 419.789 347.751 420.984 347.751 422.633V431H345.83V422.762C345.83 421.691 345.583 420.891 345.091 420.359C344.607 419.828 343.861 419.562 342.853 419.562C341.431 419.562 340.431 419.965 339.853 420.77C339.275 421.574 338.986 422.742 338.986 424.273V431H337.04V418.156H338.611L338.904 420.008H339.009C339.283 419.555 339.63 419.176 340.052 418.871C340.474 418.559 340.947 418.324 341.47 418.168C341.994 418.004 342.544 417.922 343.123 417.922Z" fill="#00A89D"/>
<path d="M330.344 510V492.867H332.336V508.219H339.941V510H330.344ZM346.915 496.945C348.446 496.945 349.583 497.289 350.325 497.977C351.067 498.664 351.438 499.762 351.438 501.27V510H350.02L349.645 508.102H349.551C349.192 508.57 348.817 508.965 348.426 509.285C348.036 509.598 347.583 509.836 347.067 510C346.559 510.156 345.934 510.234 345.192 510.234C344.411 510.234 343.715 510.098 343.106 509.824C342.504 509.551 342.028 509.137 341.676 508.582C341.333 508.027 341.161 507.324 341.161 506.473C341.161 505.191 341.668 504.207 342.684 503.52C343.7 502.832 345.247 502.457 347.325 502.395L349.54 502.301V501.516C349.54 500.406 349.301 499.629 348.825 499.184C348.348 498.738 347.676 498.516 346.809 498.516C346.137 498.516 345.497 498.613 344.887 498.809C344.278 499.004 343.7 499.234 343.153 499.5L342.555 498.023C343.133 497.727 343.797 497.473 344.547 497.262C345.297 497.051 346.086 496.945 346.915 496.945ZM349.516 503.672L347.559 503.754C345.958 503.816 344.829 504.078 344.172 504.539C343.516 505 343.188 505.652 343.188 506.496C343.188 507.23 343.411 507.773 343.856 508.125C344.301 508.477 344.891 508.652 345.625 508.652C346.766 508.652 347.7 508.336 348.426 507.703C349.153 507.07 349.516 506.121 349.516 504.855V503.672ZM358.552 515.766C356.864 515.766 355.563 515.449 354.649 514.816C353.735 514.191 353.278 513.312 353.278 512.18C353.278 511.375 353.532 510.688 354.04 510.117C354.556 509.547 355.267 509.168 356.173 508.98C355.837 508.824 355.548 508.59 355.306 508.277C355.071 507.965 354.954 507.605 354.954 507.199C354.954 506.73 355.083 506.32 355.341 505.969C355.606 505.609 356.009 505.266 356.548 504.938C355.876 504.664 355.329 504.203 354.907 503.555C354.493 502.898 354.286 502.137 354.286 501.27C354.286 500.348 354.478 499.562 354.86 498.914C355.243 498.258 355.798 497.758 356.524 497.414C357.251 497.07 358.13 496.898 359.161 496.898C359.388 496.898 359.614 496.91 359.841 496.934C360.075 496.949 360.298 496.977 360.509 497.016C360.72 497.047 360.903 497.086 361.06 497.133H365.466V498.387L363.099 498.68C363.333 498.984 363.528 499.352 363.685 499.781C363.841 500.211 363.919 500.688 363.919 501.211C363.919 502.492 363.485 503.512 362.618 504.27C361.751 505.02 360.56 505.395 359.044 505.395C358.685 505.395 358.317 505.363 357.942 505.301C357.56 505.512 357.267 505.746 357.063 506.004C356.868 506.262 356.77 506.559 356.77 506.895C356.77 507.145 356.845 507.344 356.993 507.492C357.149 507.641 357.372 507.75 357.661 507.82C357.95 507.883 358.298 507.914 358.704 507.914H360.966C362.364 507.914 363.435 508.207 364.177 508.793C364.927 509.379 365.302 510.234 365.302 511.359C365.302 512.781 364.724 513.871 363.567 514.629C362.411 515.387 360.739 515.766 358.552 515.766ZM358.61 514.242C359.673 514.242 360.552 514.133 361.247 513.914C361.95 513.703 362.474 513.395 362.817 512.988C363.169 512.59 363.345 512.113 363.345 511.559C363.345 511.043 363.228 510.652 362.993 510.387C362.759 510.129 362.415 509.957 361.962 509.871C361.509 509.777 360.954 509.73 360.298 509.73H358.071C357.493 509.73 356.989 509.82 356.56 510C356.13 510.18 355.798 510.445 355.563 510.797C355.337 511.148 355.224 511.586 355.224 512.109C355.224 512.805 355.517 513.332 356.103 513.691C356.688 514.059 357.524 514.242 358.61 514.242ZM359.114 503.977C360.044 503.977 360.743 503.742 361.212 503.273C361.681 502.805 361.915 502.121 361.915 501.223C361.915 500.262 361.677 499.543 361.2 499.066C360.724 498.582 360.02 498.34 359.091 498.34C358.2 498.34 357.513 498.59 357.028 499.09C356.552 499.582 356.313 500.305 356.313 501.258C356.313 502.133 356.556 502.805 357.04 503.273C357.524 503.742 358.216 503.977 359.114 503.977ZM378.591 503.555C378.591 504.609 378.455 505.551 378.181 506.379C377.908 507.207 377.513 507.906 376.998 508.477C376.482 509.047 375.857 509.484 375.123 509.789C374.396 510.086 373.572 510.234 372.65 510.234C371.79 510.234 371.001 510.086 370.283 509.789C369.572 509.484 368.955 509.047 368.431 508.477C367.915 507.906 367.513 507.207 367.224 506.379C366.943 505.551 366.802 504.609 366.802 503.555C366.802 502.148 367.04 500.953 367.517 499.969C367.994 498.977 368.673 498.223 369.556 497.707C370.447 497.184 371.505 496.922 372.732 496.922C373.904 496.922 374.927 497.184 375.802 497.707C376.685 498.23 377.369 498.988 377.853 499.98C378.345 500.965 378.591 502.156 378.591 503.555ZM368.818 503.555C368.818 504.586 368.955 505.48 369.228 506.238C369.501 506.996 369.923 507.582 370.494 507.996C371.064 508.41 371.798 508.617 372.697 508.617C373.587 508.617 374.318 508.41 374.888 507.996C375.466 507.582 375.892 506.996 376.165 506.238C376.439 505.48 376.576 504.586 376.576 503.555C376.576 502.531 376.439 501.648 376.165 500.906C375.892 500.156 375.47 499.578 374.9 499.172C374.33 498.766 373.591 498.562 372.685 498.562C371.349 498.562 370.369 499.004 369.744 499.887C369.126 500.77 368.818 501.992 368.818 503.555ZM389.783 506.484C389.783 507.305 389.576 507.996 389.162 508.559C388.756 509.113 388.17 509.531 387.404 509.812C386.646 510.094 385.74 510.234 384.685 510.234C383.787 510.234 383.01 510.164 382.353 510.023C381.697 509.883 381.123 509.684 380.631 509.426V507.633C381.154 507.891 381.779 508.125 382.506 508.336C383.232 508.547 383.975 508.652 384.732 508.652C385.842 508.652 386.646 508.473 387.146 508.113C387.646 507.754 387.896 507.266 387.896 506.648C387.896 506.297 387.795 505.988 387.592 505.723C387.396 505.449 387.064 505.188 386.596 504.938C386.127 504.68 385.478 504.398 384.65 504.094C383.83 503.781 383.119 503.473 382.518 503.168C381.924 502.855 381.463 502.477 381.135 502.031C380.814 501.586 380.654 501.008 380.654 500.297C380.654 499.211 381.092 498.379 381.967 497.801C382.85 497.215 384.006 496.922 385.435 496.922C386.209 496.922 386.932 497 387.603 497.156C388.283 497.305 388.916 497.508 389.502 497.766L388.846 499.324C388.314 499.098 387.748 498.906 387.146 498.75C386.545 498.594 385.932 498.516 385.307 498.516C384.408 498.516 383.717 498.664 383.232 498.961C382.756 499.258 382.518 499.664 382.518 500.18C382.518 500.578 382.627 500.906 382.846 501.164C383.072 501.422 383.432 501.664 383.924 501.891C384.416 502.117 385.064 502.383 385.869 502.688C386.674 502.984 387.369 503.293 387.955 503.613C388.541 503.926 388.99 504.309 389.303 504.762C389.623 505.207 389.783 505.781 389.783 506.484Z" fill="#00A89D"/>
</g>
<defs>
<clipPath id="clip0_2105_49">
<rect width="1920" height="973" fill="white"/>
</clipPath>
</defs>
</svg>
